<svg xmlns="http://www.w3.org/2000/svg" width="17" height="17" viewBox="0 0 17 17" fill="none">
<path d="M8.97995 0.320623L11.1869 5.01739C11.2743 5.17777 11.4054 5.29232 11.5802 5.31523L16.5185 6.0713C16.9555 6.14003 17.1303 6.71281 16.8244 7.03356L13.2409 10.6993C13.1098 10.8368 13.0661 11.0201 13.0879 11.2034L13.9401 16.3813C14.0057 16.8395 13.5468 17.1832 13.1535 16.977L8.73959 14.5026C8.58663 14.4109 8.38997 14.4109 8.23702 14.5026L3.82313 16.954C3.42982 17.1602 2.97095 16.8166 3.0365 16.3584L3.88869 11.1805C3.91054 10.9972 3.86684 10.8139 3.73573 10.6764L0.152184 7.01065C-0.17558 6.68989 -0.00077259 6.11712 0.458096 6.04839L5.3964 5.29232C5.57121 5.26941 5.72416 5.15485 5.78972 4.99448L8.01851 0.320623C8.21517 -0.114687 8.78329 -0.114687 8.97995 0.320623Z" fill="#FC6901"/>
</svg>