<?xml version="1.0" standalone="no"?>
<!DOCTYPE svg PUBLIC "-//W3C//DTD SVG 20010904//EN"
 "http://www.w3.org/TR/2001/REC-SVG-20010904/DTD/svg10.dtd">
<svg version="1.0" xmlns="http://www.w3.org/2000/svg"
 width="246.000000pt" height="246.000000pt" viewBox="0 0 246.000000 246.000000"
 preserveAspectRatio="xMidYMid meet">
<metadata>
Created by potrace 1.11, written by Peter Selinger 2001-2013
</metadata>
<g transform="translate(0.000000,246.000000) scale(0.100000,-0.100000)"
fill="#000000" stroke="none">
<path d="M0 1230 l0 -1110 1230 0 1230 0 0 1110 0 1110 -1230 0 -1230 0 0
-1110z m1275 665 l0 -60 -157 -3 -158 -3 -2 -467 -3 -467 -70 0 -70 0 -3 467
-2 467 -158 3 -157 3 -3 49 c-2 27 -1 55 2 62 5 12 70 14 393 12 l388 -3 0
-60z m670 -785 l0 -525 -70 0 -70 0 -5 455 -5 455 -225 0 -225 0 -5 -455 -5
-455 -75 0 -75 0 -3 515 c-1 283 0 521 3 528 3 10 85 12 382 10 l378 -3 0
-525z"/>
</g>
</svg>
