<svg xmlns="http://www.w3.org/2000/svg" width="36" height="20" viewBox="0 0 36 20" fill="none">
<path fill-rule="evenodd" clip-rule="evenodd" d="M30.4997 12.7169C31.668 13.8615 32.9011 14.9383 33.9489 16.1983C34.4118 16.7582 34.85 17.336 35.1852 17.9858C35.6602 18.9095 35.23 19.926 34.4046 19.9812L29.2736 19.9789C27.9503 20.0891 26.8946 19.5545 26.0069 18.6465C25.2965 17.9205 24.6387 17.1477 23.9556 16.3971C23.6755 16.0903 23.3824 15.8017 23.0323 15.5735C22.3318 15.1173 21.7238 15.257 21.3236 15.99C20.9159 16.7356 20.8234 17.5612 20.7834 18.3921C20.7284 19.6045 20.3632 19.9233 19.1496 19.9788C16.5559 20.1015 14.0943 19.7077 11.8076 18.3948C9.79156 17.2373 8.22821 15.6033 6.86748 13.7535C4.21811 10.1514 2.18923 6.19334 0.365739 2.12436C-0.0447133 1.20762 0.25546 0.715514 1.26348 0.698096C2.93734 0.665467 4.61098 0.66779 6.28681 0.695774C6.96711 0.70576 7.41749 1.09731 7.68017 1.74222C8.58578 3.97666 9.69389 6.10253 11.0848 8.07304C11.4552 8.59766 11.8329 9.12227 12.3708 9.49153C12.9658 9.90037 13.4189 9.76487 13.6988 9.09975C13.8764 8.67801 13.9542 8.22376 13.9942 7.77206C14.1268 6.21807 14.1443 4.66675 13.9117 3.11821C13.7689 2.15177 13.2264 1.52613 12.2654 1.34324C11.775 1.25 11.848 1.06688 12.0854 0.785997C12.4979 0.301557 12.8857 0 13.659 0H19.4577C20.3706 0.180794 20.5734 0.592313 20.6983 1.51405L20.7033 7.97748C20.6934 8.3343 20.8809 9.39317 21.5214 9.62936C22.0341 9.79749 22.372 9.38598 22.6796 9.0598C24.0679 7.58117 25.0588 5.83372 25.9441 4.02427C26.3369 3.22864 26.6747 2.40235 27.0021 1.57675C27.2446 0.96412 27.6252 0.66268 28.3129 0.676033L33.8939 0.681026C34.0594 0.681026 34.2268 0.683465 34.3871 0.710985C35.3275 0.871807 35.5853 1.27775 35.2948 2.19926C34.8371 3.64503 33.9467 4.84986 33.076 6.06027C32.1453 7.35253 31.1499 8.60056 30.2269 9.90049C29.3789 11.0876 29.4463 11.6859 30.4997 12.7169Z" fill="#484848"/>
</svg>