<svg xmlns="http://www.w3.org/2000/svg" width="22" height="22" viewBox="0 0 22 22" fill="none">
<path d="M18.8923 2.77356C16.8862 0.924521 14.3908 0 11.4108 0C8.27824 0 5.6079 1.05018 3.40431 3.15504C1.20072 5.25989 0.0966797 7.87638 0.0966797 11.009C0.0966797 14.0114 1.14686 16.592 3.24274 18.7552C5.3476 20.9184 8.17501 22 11.734 22C13.8792 22 15.9841 21.5602 18.0485 20.6761C18.7217 20.3888 19.0493 19.6169 18.7756 18.9392C18.4928 18.2391 17.694 17.916 16.9984 18.2122C15.2032 18.9841 13.4439 19.3701 11.7295 19.3701C9.0008 19.3701 6.88697 18.5398 5.38799 16.8747C3.8935 15.2142 3.14401 13.2619 3.14401 11.0224C3.14401 8.58996 3.94735 6.5614 5.54956 4.93227C7.14727 3.30763 9.11749 2.49082 11.4512 2.49082C13.601 2.49082 15.4186 3.15953 16.8996 4.49694C18.3806 5.83435 19.1212 7.51734 19.1212 9.5459C19.1212 10.9327 18.7801 12.0906 18.1024 13.0106C17.4247 13.9351 16.7201 14.3929 15.9886 14.3929C15.5936 14.3929 15.3961 14.182 15.3961 13.7556C15.3961 13.41 15.4231 13.0061 15.4724 12.5394L16.3072 5.71318H13.4349L13.2509 6.38189C12.5194 5.78499 11.716 5.48429 10.8454 5.48429C9.46306 5.48429 8.27824 6.03631 7.29537 7.13586C6.30802 8.23541 5.81883 9.65361 5.81883 11.386C5.81883 13.0779 6.25417 14.4468 7.12932 15.4835C8.00447 16.5247 9.05466 17.0408 10.2844 17.0408C11.3839 17.0408 12.3219 16.5785 13.1028 15.6585C13.6907 16.5426 14.5569 16.9825 15.7013 16.9825C17.3843 16.9825 18.8384 16.2509 20.0636 14.7834C21.2888 13.3203 21.9037 11.552 21.9037 9.48307C21.9037 6.8621 20.9029 4.6226 18.8923 2.77356ZM12.277 13.1004C11.7699 13.7825 11.164 14.1281 10.4594 14.1281C9.97918 14.1281 9.59321 13.8768 9.30149 13.3741C9.00529 12.8715 8.85718 12.2477 8.85718 11.4982C8.85718 10.5736 9.06363 9.82864 9.47652 9.26316C9.88942 8.69767 10.401 8.41044 11.0114 8.41044C11.541 8.41044 12.0122 8.62138 12.4251 9.04774C12.838 9.47409 13.0445 10.0396 13.0445 10.7487C13.04 11.6328 12.7842 12.4137 12.277 13.1004Z" fill="#545454"/>
</svg>