<svg xmlns="http://www.w3.org/2000/svg" width="22" height="22" viewBox="0 0 22 22" fill="none">
<path d="M21.9529 17.046C21.8906 16.8585 21.4948 16.5823 20.7655 16.218C20.5679 16.1032 20.2864 15.9472 19.9221 15.7492C19.5575 15.5513 19.2266 15.3689 18.9299 15.2022C18.6327 15.0355 18.3542 14.8741 18.0939 14.7181C18.0523 14.6868 17.9221 14.5958 17.7034 14.4444C17.4844 14.2935 17.2998 14.1815 17.1485 14.1084C16.9975 14.0358 16.849 13.9992 16.7031 13.9992C16.4948 13.9992 16.2346 14.1478 15.9223 14.4444C15.6099 14.7415 15.3233 15.0642 15.0631 15.4134C14.8027 15.7625 14.5266 16.0852 14.2353 16.3821C13.9435 16.6791 13.7037 16.8275 13.5164 16.8275C13.4224 16.8275 13.3052 16.8012 13.1647 16.7495C13.0243 16.6975 12.9174 16.6529 12.8441 16.6169C12.7714 16.5802 12.6467 16.5075 12.4695 16.3978C12.292 16.2884 12.1933 16.2285 12.1725 16.218C10.7455 15.4262 9.52161 14.5199 8.50068 13.4994C7.48008 12.4783 6.5737 11.2546 5.78208 9.82743C5.77168 9.80658 5.71165 9.70758 5.60236 9.53059C5.4929 9.35344 5.41995 9.22861 5.38351 9.15549C5.34706 9.08265 5.30278 8.97583 5.25079 8.83523C5.1988 8.69464 5.1727 8.57753 5.1727 8.48367C5.1727 8.29628 5.32117 8.05658 5.61806 7.76489C5.9149 7.47336 6.2379 7.19721 6.58673 6.93699C6.93583 6.67676 7.2585 6.39021 7.55544 6.07783C7.85228 5.76529 8.0007 5.50501 8.0007 5.29672C8.0007 5.15098 7.96425 5.0024 7.89141 4.85141C7.81851 4.70009 7.70654 4.51544 7.55544 4.29659C7.40429 4.07785 7.31317 3.94776 7.28186 3.9059C7.12578 3.64567 6.9645 3.36706 6.79764 3.07016C6.63078 2.77333 6.44865 2.44245 6.25065 2.07792C6.05281 1.71355 5.89668 1.4322 5.78197 1.2343C5.4176 0.505291 5.14161 0.109289 4.95407 0.0470102C4.88112 0.0157613 4.77166 0 4.62598 0C4.34458 0 3.97747 0.0519903 3.52439 0.156299C3.07114 0.260444 2.71449 0.369678 2.45404 0.48444C1.93321 0.703073 1.38118 1.33845 0.797796 2.39035C0.266565 3.3693 0.000976562 4.33824 0.000976562 5.29644C0.000976562 5.57747 0.0192005 5.85088 0.0556485 6.11674C0.0920964 6.38233 0.157221 6.68185 0.251077 7.01524C0.344769 7.34853 0.420347 7.59611 0.477481 7.75734C0.534671 7.91867 0.641442 8.20768 0.797742 8.62448C0.953822 9.04117 1.04768 9.29625 1.07893 9.39C1.44346 10.4109 1.87575 11.3222 2.37568 12.1244C3.19822 13.4576 4.32071 14.8355 5.74251 16.2574C7.16437 17.6792 8.54195 18.8016 9.87531 19.6245C10.6773 20.1244 11.589 20.5566 12.6097 20.9214C12.7035 20.9525 12.9586 21.0461 13.3751 21.2027C13.7918 21.3589 14.0809 21.4657 14.2423 21.523C14.4037 21.5804 14.6513 21.656 14.9843 21.7498C15.318 21.8437 15.6173 21.9088 15.8829 21.9455C16.1486 21.9815 16.4221 22.0001 16.7032 22.0001C17.6613 22.0001 18.6303 21.7343 19.6094 21.2031C20.6612 20.62 21.2964 20.0678 21.5152 19.5466C21.6302 19.2864 21.7392 18.9297 21.8433 18.4764C21.9478 18.0234 21.9997 17.6563 21.9997 17.375C22 17.2287 21.9843 17.1195 21.9529 17.046Z" fill="#545454"/>
</svg>