<svg xmlns="http://www.w3.org/2000/svg" width="23" height="23" viewBox="0 0 23 23" fill="none">
<path d="M22.629 11.4141C22.629 9.47109 22.1235 7.64486 21.2422 6.05576C19.6089 3.11232 16.6755 0.996464 13.223 0.466763C12.6726 0.382412 12.114 0.325195 11.5401 0.325195C10.9408 0.325195 10.3568 0.386541 9.78287 0.478561C6.34513 1.03009 3.42646 3.15479 1.81023 6.10176C0.944891 7.68025 0.451172 9.48996 0.451172 11.4141C0.451172 14.7091 1.90402 17.6649 4.1927 19.6964L3.25835 21.0124C2.85606 21.5793 2.98937 22.3638 3.55623 22.7673C3.77743 22.9242 4.03167 23.0003 4.28354 23.0003C4.67757 23.0003 5.0657 22.8157 5.3105 22.4706L6.24426 21.1552C7.81862 22.0146 9.62302 22.5042 11.5401 22.5042C13.4566 22.5042 15.261 22.0146 16.8353 21.1552L17.7691 22.4706C18.0145 22.8162 18.402 23.0003 18.796 23.0003C19.0479 23.0003 19.3016 22.9242 19.5228 22.7673C20.0896 22.3638 20.2235 21.5793 19.8212 21.0124L18.8869 19.6964C21.1756 17.6649 22.629 14.7091 22.629 11.4141ZM11.5407 19.4021C7.13555 19.4021 3.55269 15.8192 3.55269 11.4141C3.55269 10.0409 3.90131 8.7485 4.51359 7.61831C5.67917 5.46884 7.80505 3.92044 10.3096 3.53053C10.7119 3.46801 11.1207 3.42554 11.5407 3.42554C11.9359 3.42554 12.3223 3.46388 12.7027 3.51992C15.2285 3.89035 17.3774 5.43875 18.5566 7.59767C19.1759 8.73198 19.5281 10.0315 19.5281 11.4135C19.5281 15.8192 15.9452 19.4021 11.5407 19.4021Z" fill="#545454"/>
<path d="M16.015 13.2833L12.9677 11.4017C12.9046 11.0454 12.7117 10.7381 12.441 10.5204L12.5802 6.69688C12.5973 6.20847 12.2162 5.79851 11.7284 5.78023C11.2418 5.75781 10.83 6.14359 10.8117 6.632L10.672 10.4596C10.2938 10.7263 10.0449 11.1651 10.0449 11.6636C10.0449 12.4782 10.705 13.1376 11.5196 13.1376C11.7514 13.1376 11.9679 13.0792 12.1625 12.9843L15.0853 14.7905C15.2304 14.8789 15.3915 14.922 15.5496 14.922C15.8463 14.922 16.1353 14.7733 16.3034 14.5026C16.5606 14.0856 16.4308 13.5405 16.015 13.2833Z" fill="#545454"/>
</svg>