<svg xmlns="http://www.w3.org/2000/svg" width="22" height="22" viewBox="0 0 22 22" fill="none">
<path d="M15.5701 0H6.42988C2.88335 0 0 2.89474 0 6.45526V15.5158C0 19.1053 2.88335 22 6.42988 22H15.5701C19.1166 22 22 19.1053 22 15.5447V6.45526C22 2.89474 19.1166 0 15.5701 0ZM11.0144 16.7316C8.04456 16.7316 5.62254 14.3 5.62254 11.3184C5.62254 8.33684 8.04456 5.90526 11.0144 5.90526C13.9843 5.90526 16.4063 8.33684 16.4063 11.3184C16.4063 14.3 13.9843 16.7316 11.0144 16.7316ZM16.8965 6.22368C16.3486 6.22368 15.8873 5.78947 15.8873 5.21053C15.8873 4.66053 16.3198 4.19737 16.8965 4.19737C17.4443 4.19737 17.9056 4.63158 17.9056 5.21053C17.9056 5.76053 17.4443 6.22368 16.8965 6.22368Z" fill="#545454"/>
</svg>